<?xml version="1.0" encoding="utf-8"?>
<!-- Generator: Adobe Illustrator 19.0.0, SVG Export Plug-In . SVG Version: 6.00 Build 0)  -->
<svg version="1.1" id="Layer_1" xmlns="http://www.w3.org/2000/svg" xmlns:xlink="http://www.w3.org/1999/xlink" x="0px" y="0px"
	 viewBox="0 0 161 69.8" style="enable-background:new 0 0 161 69.8;" xml:space="preserve">
<style type="text/css">
	.st0{fill:#1A3C49;}
	.st1{fill:none;}
	.st2{fill:#FFFFFF;}
</style>
<g id="XMLID_115_">
	<path id="XMLID_116_" class="st0" d="M66.8,29.7h-6.4l-0.8,1.8c-0.3,0.6-0.4,1.1-0.4,1.5c0,0.5,0.2,0.9,0.6,1.1
		c0.2,0.1,0.8,0.3,1.8,0.3v0.5h-6.1v-0.5c0.7-0.1,1.2-0.4,1.6-0.8s0.9-1.4,1.6-2.7l6.5-14.5h0.3l6.6,14.9c0.6,1.4,1.1,2.3,1.5,2.7
		c0.3,0.3,0.7,0.4,1.3,0.5v0.5h-8.8v-0.5h0.4c0.7,0,1.2-0.1,1.5-0.3c0.2-0.1,0.3-0.3,0.3-0.6c0-0.2,0-0.3-0.1-0.5
		c0-0.1-0.2-0.4-0.4-1L66.8,29.7z M66.3,28.7l-2.7-6.3l-2.8,6.3H66.3z"/>
	<path id="XMLID_119_" class="st0" d="M81.1,17.7v4.6h3v1.3h-3v7.8c0,0.7,0,1.2,0.1,1.4c0.1,0.2,0.2,0.4,0.4,0.5s0.3,0.2,0.5,0.2
		c0.6,0,1.1-0.4,1.7-1.3l0.4,0.3c-0.7,1.7-1.9,2.6-3.5,2.6c-0.8,0-1.5-0.2-2-0.7s-0.9-0.9-1.1-1.5c-0.1-0.3-0.1-1.1-0.1-2.5v-6.8
		h-1.6v-0.5c1.1-0.8,2.1-1.6,2.9-2.5c0.8-0.9,1.5-1.9,2.1-2.9H81.1z"/>
	<path id="XMLID_121_" class="st0" d="M90.3,17.7v4.6h3v1.3h-3v7.8c0,0.7,0,1.2,0.1,1.4c0.1,0.2,0.2,0.4,0.4,0.5s0.3,0.2,0.5,0.2
		c0.6,0,1.1-0.4,1.7-1.3l0.4,0.3c-0.7,1.7-1.9,2.6-3.5,2.6c-0.8,0-1.5-0.2-2-0.7s-0.9-0.9-1.1-1.5c-0.1-0.3-0.1-1.1-0.1-2.5v-6.8
		h-1.6v-0.5c1.1-0.8,2.1-1.6,2.9-2.5c0.8-0.9,1.5-1.9,2.1-2.9H90.3z"/>
	<path id="XMLID_123_" class="st0" d="M100.4,22c1.1,0,2.1,0.3,3,0.8c0.9,0.6,1.7,1.4,2.1,2.4s0.7,2.2,0.7,3.4
		c0,1.8-0.5,3.3-1.4,4.5c-1.1,1.5-2.6,2.2-4.5,2.2c-1.9,0-3.3-0.7-4.4-2c-1-1.3-1.5-2.9-1.5-4.6c0-1.8,0.5-3.4,1.6-4.7
		S98.6,22,100.4,22z M100.5,22.9c-0.5,0-0.8,0.2-1.2,0.5c-0.3,0.3-0.5,1-0.6,2c-0.1,1-0.2,2.4-0.2,4.2c0,1,0.1,1.9,0.2,2.7
		c0.1,0.6,0.3,1.1,0.6,1.5s0.7,0.5,1.1,0.5c0.4,0,0.7-0.1,1-0.3c0.3-0.3,0.6-0.7,0.7-1.3c0.2-0.9,0.3-2.6,0.3-5.2
		c0-1.5-0.1-2.6-0.3-3.1c-0.2-0.6-0.4-1-0.8-1.2C101.1,23,100.8,22.9,100.5,22.9z"/>
	<path id="XMLID_126_" class="st0" d="M113.4,22.3v2.8c0.8-1.3,1.6-2.2,2.2-2.6c0.6-0.4,1.2-0.6,1.8-0.6c0.5,0,0.9,0.2,1.2,0.5
		s0.5,0.7,0.5,1.3c0,0.6-0.1,1.1-0.4,1.4c-0.3,0.3-0.6,0.5-1.1,0.5c-0.5,0-0.9-0.2-1.2-0.5c-0.3-0.3-0.6-0.5-0.6-0.5
		c-0.1-0.1-0.2-0.1-0.3-0.1c-0.3,0-0.5,0.1-0.7,0.3c-0.4,0.3-0.6,0.7-0.8,1.3c-0.3,0.9-0.4,1.8-0.4,2.9v2.9l0,0.8c0,0.5,0,0.8,0.1,1
		c0.1,0.2,0.3,0.4,0.5,0.5c0.2,0.1,0.6,0.2,1.1,0.2v0.5h-6.8v-0.5c0.5,0,0.9-0.2,1.1-0.5s0.3-0.9,0.3-2V25c0-0.7,0-1.2-0.1-1.4
		c-0.1-0.3-0.2-0.4-0.4-0.6s-0.5-0.2-0.9-0.2v-0.5H113.4z"/>
	<path id="XMLID_128_" class="st0" d="M125.6,22.3V24c0.6-0.7,1.3-1.2,1.9-1.5c0.6-0.3,1.2-0.5,1.9-0.5c0.8,0,1.5,0.2,2,0.7
		c0.5,0.5,0.9,1,1.1,1.7c0.1,0.5,0.2,1.5,0.2,2.9v4.9c0,1,0.1,1.6,0.3,1.8c0.2,0.2,0.5,0.4,1.1,0.5v0.5h-6.4v-0.5
		c0.5-0.1,0.8-0.3,1-0.6c0.1-0.2,0.2-0.8,0.2-1.7v-5.6c0-1,0-1.7-0.1-1.9c-0.1-0.3-0.2-0.5-0.4-0.6c-0.2-0.1-0.4-0.2-0.6-0.2
		c-0.8,0-1.5,0.6-2.1,1.7v6.7c0,0.9,0.1,1.5,0.3,1.8c0.2,0.3,0.5,0.4,1,0.5v0.5h-6.4v-0.5c0.5-0.1,0.9-0.2,1.1-0.5
		c0.2-0.2,0.2-0.8,0.2-1.7v-7.1c0-0.9-0.1-1.5-0.3-1.8c-0.2-0.2-0.5-0.4-1.1-0.5v-0.5H125.6z"/>
	<path id="XMLID_130_" class="st0" d="M146.4,28.2h-6.9c0.1,1.7,0.5,3,1.3,3.9c0.6,0.7,1.4,1.1,2.2,1.1c0.5,0,1-0.1,1.5-0.4
		c0.4-0.3,0.9-0.8,1.4-1.6l0.5,0.3c-0.7,1.4-1.4,2.4-2.3,2.9c-0.8,0.6-1.8,0.9-2.9,0.9c-1.9,0-3.3-0.7-4.2-2.1
		c-0.8-1.2-1.2-2.6-1.2-4.3c0-2.1,0.6-3.8,1.7-5c1.1-1.2,2.5-1.9,4-1.9c1.3,0,2.4,0.5,3.3,1.6C145.8,24.6,146.3,26.1,146.4,28.2z
		 M143.1,27.3c0-1.4-0.1-2.4-0.2-3c-0.2-0.5-0.4-0.9-0.7-1.2c-0.2-0.2-0.4-0.2-0.8-0.2c-0.5,0-0.8,0.2-1.1,0.7
		c-0.5,0.8-0.8,1.9-0.8,3.3v0.5H143.1z"/>
	<path id="XMLID_133_" class="st0" d="M153.7,35.4l-4.1-9.3c-0.6-1.4-1.1-2.3-1.3-2.6c-0.3-0.3-0.6-0.5-1.1-0.7v-0.5h6.7v0.5
		c-0.4,0-0.7,0.1-0.9,0.3c-0.2,0.2-0.3,0.3-0.3,0.6c0,0.3,0.2,1,0.7,2l2.1,4.9l1.5-3.8c0.5-1.4,0.8-2.3,0.8-2.8
		c0-0.3-0.1-0.6-0.3-0.8c-0.2-0.2-0.6-0.3-1.2-0.3v-0.5h4.2v0.5c-0.4,0-0.7,0.2-1,0.5c-0.3,0.3-0.7,1.2-1.3,2.8l-3.6,9.3
		c-0.9,2.3-1.6,3.8-2,4.3c-0.6,0.8-1.4,1.1-2.3,1.1c-0.7,0-1.3-0.2-1.8-0.6c-0.5-0.4-0.7-0.9-0.7-1.5c0-0.5,0.2-0.9,0.5-1.3
		c0.3-0.3,0.7-0.5,1.2-0.5c0.4,0,0.8,0.1,1.1,0.4c0.3,0.3,0.4,0.7,0.4,1.3c0,0.3,0,0.6,0.1,0.7c0.1,0.1,0.2,0.1,0.3,0.1
		c0.2,0,0.4-0.1,0.7-0.4c0.4-0.4,0.8-1.2,1.3-2.6L153.7,35.4z"/>
</g>
<polygon id="XMLID_3_" class="st1" points="29.7,27.7 29.7,17.5 23.9,17.5 23.9,27.7 26.8,24.9 "/>
<g id="XMLID_13_">
	<g id="XMLID_87_">
		<g id="XMLID_94_">
			<rect id="XMLID_95_" x="10.5" class="st0" width="32.5" height="7.4"/>
		</g>
		<path id="XMLID_93_" class="st0" d="M18.1,68.5c1.8,0.6,3.8,1.1,5.8,1.3V57.1l-5.8-5.8V68.5z"/>
		<path id="XMLID_92_" class="st0" d="M29.7,69.8c2-0.2,3.9-0.7,5.8-1.3V51.4l-5.8,5.8V69.8z"/>
		<g id="XMLID_90_">
			<path id="XMLID_91_" class="st0" d="M0,10.2v7.4h6.6v43.2c1.7,1.9,3.6,3.6,5.8,5V17.5h5.8v16l5.8-5.8V17.5h5.8v10.2l5.8,5.8v-16
				h5.8v48.2c2.2-1.4,4.1-3.1,5.8-5V17.5h6.6v-7.4H0z"/>
		</g>
		<g id="XMLID_88_">
			
				<rect id="XMLID_89_" x="18.1" y="33.6" transform="matrix(0.7071 0.7071 -0.7071 0.7071 37.6976 -6.5655)" class="st0" width="17.3" height="17.3"/>
		</g>
	</g>
</g>
<g id="XMLID_2_">
	<path id="XMLID_9_" class="st2" d="M27.7,42.7h-3.7l-0.4,1c-0.1,0.3-0.2,0.6-0.2,0.9c0,0.3,0.1,0.5,0.4,0.7c0.1,0.1,0.5,0.1,1,0.2
		v0.3h-3.5v-0.3c0.4-0.1,0.7-0.2,0.9-0.5c0.2-0.3,0.5-0.8,0.9-1.6l3.8-8.5h0.1l3.8,8.7c0.4,0.8,0.7,1.3,0.9,1.6
		c0.2,0.2,0.4,0.3,0.8,0.3v0.3h-5.1v-0.3h0.2c0.4,0,0.7-0.1,0.9-0.2c0.1-0.1,0.2-0.2,0.2-0.4c0-0.1,0-0.2,0-0.3c0,0-0.1-0.2-0.2-0.6
		L27.7,42.7z M27.4,42.2l-1.6-3.7l-1.6,3.7H27.4z"/>
</g>
<g id="XMLID_1_">
	<path id="XMLID_96_" class="st0" d="M62.5,45.1h3.3v1.2h-1.9c0.3,0.3,0.6,0.7,0.7,0.9c0.2,0.4,0.3,0.8,0.3,1.2
		c0,0.7-0.2,1.3-0.6,1.8c-0.4,0.5-0.9,0.9-1.6,1.2c-0.7,0.3-1.3,0.4-1.8,0.4c0,0-0.5,0-1.3-0.1c-0.3,0-0.6,0.1-0.8,0.3
		s-0.3,0.5-0.3,0.7c0,0.3,0.1,0.5,0.3,0.6s0.5,0.2,1,0.2l1.8,0c1.5,0,2.5,0.2,3.1,0.5c0.8,0.5,1.2,1.2,1.2,2.1
		c0,0.6-0.2,1.1-0.6,1.6s-0.9,0.9-1.5,1.1c-0.9,0.3-2,0.5-3.2,0.5c-0.9,0-1.7-0.1-2.4-0.3s-1.3-0.4-1.6-0.7c-0.3-0.3-0.5-0.6-0.5-1
		c0-0.3,0.1-0.6,0.4-0.9c0.2-0.3,0.7-0.5,1.4-0.7c-0.9-0.5-1.4-1.1-1.4-1.9c0-0.5,0.2-1,0.6-1.4c0.4-0.5,1-0.9,1.8-1.2
		c-0.9-0.3-1.6-0.8-2.1-1.4s-0.6-1.2-0.6-2c0-1,0.4-1.8,1.2-2.5c0.8-0.7,1.8-1.1,3.1-1.1C61.1,44.7,61.8,44.8,62.5,45.1z M60,56.4
		c-0.7,0-1.2,0.1-1.4,0.2C58.2,56.8,58,57,58,57.4c0,0.4,0.2,0.7,0.6,1c0.4,0.3,1.2,0.4,2.4,0.4c1,0,1.8-0.1,2.3-0.4
		s0.8-0.6,0.8-1.1c0-0.2-0.1-0.3-0.2-0.4c-0.2-0.2-0.5-0.4-0.9-0.4S61.7,56.4,60,56.4z M60.6,45.3c-0.4,0-0.8,0.2-1,0.6
		s-0.4,1.3-0.4,2.6c0,1.1,0.1,1.8,0.4,2.2c0.3,0.4,0.6,0.6,1,0.6c0.4,0,0.8-0.2,1.1-0.6c0.3-0.4,0.4-1.1,0.4-2.3
		c0-1.3-0.2-2.1-0.5-2.6C61.4,45.5,61,45.3,60.6,45.3z"/>
	<path id="XMLID_100_" class="st0" d="M75.4,49.6h-5.4c0.1,1.3,0.4,2.4,1.1,3.1c0.5,0.6,1.1,0.9,1.8,0.9c0.4,0,0.8-0.1,1.2-0.4
		c0.3-0.2,0.7-0.7,1.1-1.3l0.4,0.2c-0.5,1.1-1.1,1.9-1.8,2.3c-0.7,0.5-1.4,0.7-2.3,0.7c-1.5,0-2.6-0.6-3.3-1.7
		c-0.6-0.9-0.9-2-0.9-3.4c0-1.7,0.4-3,1.3-4c0.9-1,1.9-1.5,3.1-1.5c1,0,1.9,0.4,2.6,1.2C74.9,46.7,75.3,47.9,75.4,49.6z M72.8,48.9
		c0-1.1-0.1-1.9-0.2-2.3s-0.3-0.7-0.6-1c-0.1-0.1-0.3-0.2-0.6-0.2c-0.4,0-0.7,0.2-0.9,0.5c-0.4,0.6-0.6,1.5-0.6,2.6v0.4H72.8z"/>
	<path id="XMLID_103_" class="st0" d="M80.7,45v1.3c0.5-0.6,1-1,1.5-1.2s1-0.4,1.5-0.4c0.6,0,1.2,0.2,1.6,0.5s0.7,0.8,0.8,1.3
		c0.1,0.4,0.2,1.2,0.2,2.3v3.9c0,0.8,0.1,1.2,0.2,1.4c0.1,0.2,0.4,0.3,0.9,0.4v0.4h-5v-0.4c0.4,0,0.6-0.2,0.8-0.5
		c0.1-0.2,0.2-0.6,0.2-1.3v-4.4c0-0.8,0-1.3-0.1-1.5c-0.1-0.2-0.2-0.4-0.3-0.5c-0.2-0.1-0.3-0.2-0.5-0.2c-0.6,0-1.2,0.4-1.7,1.3v5.3
		c0,0.7,0.1,1.2,0.2,1.4c0.1,0.2,0.4,0.3,0.8,0.4v0.4h-5v-0.4c0.4,0,0.7-0.2,0.9-0.4c0.1-0.2,0.2-0.6,0.2-1.4v-5.6
		c0-0.8-0.1-1.2-0.2-1.4c-0.1-0.2-0.4-0.3-0.9-0.4V45H80.7z"/>
	<path id="XMLID_105_" class="st0" d="M97.1,49.6h-5.4c0.1,1.3,0.4,2.4,1.1,3.1c0.5,0.6,1.1,0.9,1.8,0.9c0.4,0,0.8-0.1,1.2-0.4
		s0.7-0.7,1.1-1.3l0.4,0.2c-0.5,1.1-1.1,1.9-1.8,2.3s-1.4,0.7-2.3,0.7c-1.5,0-2.6-0.6-3.3-1.7c-0.6-0.9-0.9-2-0.9-3.4
		c0-1.7,0.4-3,1.3-4c0.9-1,1.9-1.5,3.1-1.5c1,0,1.9,0.4,2.6,1.2C96.7,46.7,97.1,47.9,97.1,49.6z M94.5,48.9c0-1.1-0.1-1.9-0.2-2.3
		c-0.1-0.4-0.3-0.7-0.6-1c-0.1-0.1-0.3-0.2-0.6-0.2c-0.4,0-0.7,0.2-0.9,0.5c-0.4,0.6-0.6,1.5-0.6,2.6v0.4H94.5z"/>
	<path id="XMLID_108_" class="st0" d="M102.5,45v2.3c0.7-1,1.2-1.7,1.7-2c0.5-0.3,1-0.5,1.4-0.5c0.4,0,0.7,0.1,1,0.4s0.4,0.6,0.4,1
		c0,0.5-0.1,0.8-0.3,1.1c-0.2,0.3-0.5,0.4-0.8,0.4c-0.4,0-0.7-0.1-1-0.4s-0.4-0.4-0.5-0.4c-0.1,0-0.2-0.1-0.2-0.1
		c-0.2,0-0.4,0.1-0.6,0.2c-0.3,0.2-0.5,0.6-0.7,1c-0.2,0.7-0.3,1.4-0.3,2.3v2.3l0,0.6c0,0.4,0,0.7,0.1,0.8c0.1,0.2,0.2,0.3,0.4,0.4
		c0.2,0.1,0.4,0.1,0.8,0.2v0.4h-5.4v-0.4c0.4,0,0.7-0.2,0.9-0.4c0.2-0.2,0.2-0.7,0.2-1.6v-5.5c0-0.6,0-0.9-0.1-1.1
		c-0.1-0.2-0.2-0.3-0.3-0.4c-0.1-0.1-0.4-0.2-0.7-0.2V45H102.5z"/>
	<path id="XMLID_110_" class="st0" d="M113.5,53.4c-1.2,1.1-2.3,1.6-3.3,1.6c-0.6,0-1-0.2-1.4-0.6c-0.4-0.4-0.6-0.8-0.6-1.4
		c0-0.8,0.3-1.4,1-2s2.1-1.4,4.3-2.4v-1c0-0.8,0-1.2-0.1-1.4c-0.1-0.2-0.2-0.4-0.5-0.5c-0.2-0.1-0.5-0.2-0.8-0.2
		c-0.5,0-0.8,0.1-1.1,0.3c-0.2,0.1-0.3,0.3-0.3,0.4c0,0.1,0.1,0.3,0.3,0.6c0.3,0.3,0.4,0.6,0.4,0.9c0,0.3-0.1,0.6-0.4,0.9
		c-0.3,0.2-0.6,0.4-1,0.4c-0.4,0-0.8-0.1-1.1-0.4c-0.3-0.3-0.5-0.6-0.5-0.9c0-0.5,0.2-1,0.6-1.5c0.4-0.5,1-0.8,1.7-1.1
		c0.7-0.2,1.5-0.4,2.3-0.4c0.9,0,1.7,0.2,2.2,0.6c0.5,0.4,0.9,0.8,1.1,1.3c0.1,0.3,0.1,1,0.1,2v3.9c0,0.5,0,0.7,0.1,0.9
		c0,0.1,0.1,0.2,0.2,0.3c0.1,0.1,0.2,0.1,0.2,0.1c0.2,0,0.4-0.1,0.6-0.4l0.3,0.3c-0.4,0.5-0.7,0.9-1.1,1.1s-0.8,0.4-1.3,0.4
		c-0.6,0-1-0.1-1.3-0.4C113.8,54.4,113.6,54,113.5,53.4z M113.5,52.6v-3.3c-0.9,0.5-1.5,1-1.9,1.6c-0.3,0.4-0.4,0.8-0.4,1.2
		c0,0.3,0.1,0.6,0.4,0.9c0.2,0.2,0.4,0.3,0.7,0.3C112.6,53.2,113,53,113.5,52.6z"/>
	<path id="XMLID_113_" class="st0" d="M122.8,40.5v12.3c0,0.7,0.1,1.1,0.2,1.3c0.2,0.2,0.5,0.3,1,0.3v0.4h-5.4v-0.4
		c0.4,0,0.8-0.1,1-0.4c0.1-0.2,0.2-0.6,0.2-1.3V42.5c0-0.7-0.1-1.1-0.2-1.3c-0.2-0.2-0.5-0.3-0.9-0.3v-0.4H122.8z"/>
</g>
</svg>
