<?xml version="1.0" encoding="utf-8"?>
<!-- Generator: Adobe Illustrator 19.0.0, SVG Export Plug-In . SVG Version: 6.00 Build 0)  -->
<svg version="1.1" id="Layer_1" xmlns="http://www.w3.org/2000/svg" xmlns:xlink="http://www.w3.org/1999/xlink" x="0px" y="0px"
	 viewBox="0 0 84 109.6" style="enable-background:new 0 0 84 109.6;" xml:space="preserve">
<style type="text/css">
	.st0{fill:none;}
	.st1{fill:#1C3D4A;}
	.st2{fill:#FFFFFF;}
</style>
<g id="XMLID_51_">
	<polygon id="XMLID_111_" class="st0" points="46.5,43.5 46.5,27.5 37.5,27.5 37.5,43.5 42,39 	"/>
	<g id="XMLID_72_">
		<g id="XMLID_92_">
			<g id="XMLID_99_">
				<rect id="XMLID_101_" x="16.5" class="st1" width="51.1" height="11.6"/>
			</g>
			<path id="XMLID_98_" class="st1" d="M28.4,107.5c2.9,1,5.9,1.7,9,2V89.7l-9-9V107.5z"/>
			<path id="XMLID_97_" class="st1" d="M46.5,109.6c3.1-0.3,6.2-1,9-2V80.6l-9,9V109.6z"/>
			<g id="XMLID_95_">
				<path id="XMLID_96_" class="st1" d="M0,15.9v11.6h10.3v67.8c2.6,3,5.7,5.6,9,7.8V27.5h9v25l9-9v-16h9v16l9,9v-25h9v75.6
					c3.4-2.2,6.4-4.8,9-7.8V27.5H84V15.9H0z"/>
			</g>
			<g id="XMLID_93_">
				
					<rect id="XMLID_94_" x="28.4" y="52.7" transform="matrix(0.7071 0.7071 -0.7071 0.7071 59.1412 -10.3001)" class="st1" width="27.1" height="27.1"/>
			</g>
		</g>
	</g>
	<g id="XMLID_64_">
		<path id="XMLID_68_" class="st2" d="M43.4,67.1h-5.9l-0.7,1.6c-0.2,0.5-0.3,1-0.3,1.3c0,0.5,0.2,0.8,0.6,1
			c0.2,0.1,0.8,0.2,1.6,0.3v0.5h-5.5v-0.5c0.6-0.1,1.1-0.3,1.5-0.7c0.4-0.4,0.9-1.2,1.4-2.5L42,54.8h0.2l6,13.6
			c0.6,1.3,1,2.1,1.4,2.4c0.3,0.3,0.7,0.4,1.2,0.4v0.5h-8v-0.5h0.3c0.6,0,1.1-0.1,1.4-0.3c0.2-0.1,0.3-0.3,0.3-0.6
			c0-0.1,0-0.3-0.1-0.5c0-0.1-0.1-0.4-0.4-0.9L43.4,67.1z M43,66.1l-2.5-5.7L38,66.1H43z"/>
	</g>
</g>
</svg>
