<?xml version="1.0" encoding="utf-8"?>
<!-- Generator: Adobe Illustrator 19.0.0, SVG Export Plug-In . SVG Version: 6.00 Build 0)  -->
<svg version="1.1" id="Layer_1" xmlns="http://www.w3.org/2000/svg" xmlns:xlink="http://www.w3.org/1999/xlink" x="0px" y="0px"
	 viewBox="0 0 143.8 88.7" style="enable-background:new 0 0 143.8 88.7;" xml:space="preserve">
<style type="text/css">
	.st0{fill:#1C3D4A;}
</style>
<g id="XMLID_278_">
	<g id="XMLID_359_">
		<path id="XMLID_360_" class="st0" d="M122.2,30.8l-16.2-9c-1.6-0.9-3.5-1.4-5.4-1.4H45.2c-1.7,0-3.4,0.4-4.9,1.2L22,30.7L0.6,20
			l3.5-7L22,21.9l14.7-7.4c2.6-1.3,5.5-2,8.4-2h55.4c3.2,0,6.4,0.8,9.2,2.4l12.4,6.9L138,13l3.8,6.9L122.2,30.8z"/>
	</g>
	<polygon id="XMLID_358_" class="st0" points="75.1,15.7 84.9,88.7 57.4,88.7 67.2,15.7 	"/>
	<circle id="XMLID_355_" class="st0" cx="71.1" cy="7.9" r="7.9"/>
	<ellipse id="XMLID_354_" class="st0" cx="22" cy="69.2" rx="21.6" ry="4.4"/>
	<g id="XMLID_337_">
		<polygon id="XMLID_344_" class="st0" points="41.3,69.6 22.1,29.8 3.3,69.6 1.5,68.8 22,25.2 43.1,68.8 		"/>
	</g>
	<g id="XMLID_319_">
		
			<rect id="XMLID_321_" x="2.2" y="46.5" transform="matrix(6.134854e-003 1 -1 6.134854e-003 69.538 25.0462)" class="st0" width="40" height="2"/>
	</g>
	<ellipse id="XMLID_312_" class="st0" cx="122.2" cy="69.2" rx="21.6" ry="4.4"/>
	<g id="XMLID_308_">
		<polygon id="XMLID_310_" class="st0" points="141.5,69.6 122.2,29.8 103.5,69.6 101.7,68.8 122.2,25.2 143.2,68.8 		"/>
	</g>
	<g id="XMLID_302_">
		
			<rect id="XMLID_307_" x="102.3" y="46.5" transform="matrix(6.134854e-003 1 -1 6.134854e-003 169.0913 -75.1198)" class="st0" width="40" height="2"/>
	</g>
</g>
</svg>
