<?xml version="1.0" encoding="utf-8"?>
<!-- Generator: Adobe Illustrator 19.0.0, SVG Export Plug-In . SVG Version: 6.00 Build 0)  -->
<svg version="1.1" id="Layer_1" xmlns="http://www.w3.org/2000/svg" xmlns:xlink="http://www.w3.org/1999/xlink" x="0px" y="0px"
	 viewBox="0 0 80.6 48.4" style="enable-background:new 0 0 80.6 48.4;" xml:space="preserve">
<style type="text/css">
	.st0{fill:#1A3C49;}
</style>
<g id="XMLID_1263_">
	<g id="XMLID_1285_">
		<path id="XMLID_1286_" class="st0" d="M67.9,17L59,12c-0.9-0.5-1.9-0.8-3-0.8H25.5c-0.9,0-1.9,0.2-2.7,0.6l-10,5L0.9,11l1.9-3.9
			l9.9,4.9L20.8,8c1.4-0.7,3-1.1,4.7-1.1H56c1.8,0,3.5,0.5,5.1,1.3l6.8,3.8l8.7-4.8l2.1,3.8L67.9,17z"/>
	</g>
	<polygon id="XMLID_1284_" class="st0" points="41.9,8.4 47.3,48.4 32.2,48.4 37.6,8.4 	"/>
	<circle id="XMLID_1283_" class="st0" cx="39.8" cy="4.3" r="4.3"/>
	<ellipse id="XMLID_1282_" class="st0" cx="12.7" cy="38.1" rx="11.9" ry="2.4"/>
	<g id="XMLID_1280_">
		<polygon id="XMLID_1281_" class="st0" points="23.3,38.4 12.7,16.4 2.4,38.4 1.4,37.9 12.7,13.9 24.3,37.9 		"/>
	</g>
	<g id="XMLID_1278_">
		
			<rect id="XMLID_1279_" x="1.8" y="25.6" transform="matrix(6.134854e-003 1 -1 6.134854e-003 38.8814 13.2243)" class="st0" width="22" height="1.1"/>
	</g>
	<ellipse id="XMLID_1277_" class="st0" cx="67.9" cy="38.1" rx="11.9" ry="2.4"/>
	<g id="XMLID_1275_">
		<polygon id="XMLID_1276_" class="st0" points="78.5,38.4 67.9,16.4 57.6,38.4 56.6,37.9 67.9,13.9 79.5,37.9 		"/>
	</g>
	<g id="XMLID_1273_">
		
			<rect id="XMLID_1274_" x="56.9" y="25.6" transform="matrix(6.134854e-003 1 -1 6.134854e-003 93.7282 -41.96)" class="st0" width="22" height="1.1"/>
	</g>
</g>
</svg>
