<?xml version="1.0" encoding="utf-8"?>
<!-- Generator: Adobe Illustrator 19.0.0, SVG Export Plug-In . SVG Version: 6.00 Build 0)  -->
<svg version="1.1" id="Layer_1" xmlns="http://www.w3.org/2000/svg" xmlns:xlink="http://www.w3.org/1999/xlink" x="0px" y="0px"
	 viewBox="0 0 92.9 91.3" style="enable-background:new 0 0 92.9 91.3;" xml:space="preserve">
<style type="text/css">
	.st0{fill:#1C3D4A;}
</style>
<g id="XMLID_14_">
	<path id="XMLID_15_" class="st0" d="M39.9,42c8.3,0,16.6-0.1,25,0.1c2.3,0,5.4-2.8,5.2-5.2c-0.1-0.9-0.2-1.9-0.4-2.8
		c-0.5-2.6-2.1-4.5-3.9-6.4c-2.2-2.1-4.6-3.3-7.6-3.4c-3.9-0.1-7.8-0.1-11.7,0c-2.8,0.1-5.4,1-7.3,3.2c-0.7,0.2-1.1,0.5-1.2,1.3
		c-1.4,1.4-2.5,2.9-2.8,4.9c-0.1,0.1-0.1,0.2-0.1,0.3c-0.4,1.3-0.6,2.7-0.2,4.1l0,0v0C35.4,40.4,37.4,41.9,39.9,42z"/>
	<path id="XMLID_133_" class="st0" d="M92.4,26c-0.1-0.6-0.2-1.1-0.7-1.6c-0.2-1.2-1.2-1.8-1.8-2.7c-0.1-0.5-0.5-0.8-1-1
		c-0.8-0.7-1.7-1.4-2.7-1.7c-0.3-0.3-0.7-0.3-1-0.4c-0.7-0.3-1.5-0.4-2.2-0.3C82.9,18,82.7,18,82.5,18c-3.7,0-7.3-0.1-11,0.1
		c-2.2,0.1-4,1.2-5.7,2.3c-0.5,0.4-1,0.9-1,1.6c-0.1,0.6,0,1.2,0.4,1.6c0,0,0,0,0,0c0.2,0.2,0.3,0.4,0.5,0.5c2.8,2,4.9,4.5,6,7.9
		c0.2,0.6,0.5,1.2,1.2,1.4c0.4,0.4,0.8,0.3,1.3,0.3c4.6,0,9.2,0,13.9,0c0.4,0,0.9,0.1,1.3-0.2c1.8-0.4,2.9-1.6,3.3-3.4
		C93,28.7,92.8,27.4,92.4,26z M65.2,23.4c0,0.1,0,0.1,0.1,0.2C65.3,23.6,65.2,23.5,65.2,23.4z"/>
	<path id="XMLID_134_" class="st0" d="M24.9,15.6c2.3,0.9,4.6,0.6,6.7-0.6c0.4-0.1,0.8-0.3,0.8-0.8l0,0.1l0.1,0
		c0.7-0.2,1.2-0.6,1.2-1.3c1.1-0.7,1.3-1.8,1.6-2.9c0.1-0.1,0.1-0.2,0.1-0.3c0.3-1,0.3-2,0-3.1c0-0.1,0-0.1-0.1-0.2
		c-0.2-1.8-1.2-3.1-2.5-4.1c-0.1-0.5-0.4-0.5-0.8-0.7C28.6-1,24.3-0.3,21.5,3.1c-0.7,0.4-1.1,1-1.2,1.7C18.2,8.9,20.6,14,24.9,15.6z
		"/>
	<path id="XMLID_135_" class="st0" d="M70.9,12.8c0.4,0.7,0.8,1.4,1.7,1.5c0.3,0.6,0.8,0.9,1.5,1c0.2,0.2,0.4,0.3,0.7,0.3
		c1.6,0.6,3.2,0.8,4.8,0c0.4,0.1,0.6-0.2,0.8-0.5c2-0.3,4.2-2.7,4.4-5c0.2,0,0.2-0.2,0.3-0.4c0.9-4.2-1.3-7.6-4.8-9.1
		c-2-0.9-4.1-0.8-6.1,0.1c-0.3,0.1-0.6,0.2-0.8,0.4c-2.7,1.7-4.3,4.1-4,7.5C69.3,10.2,69.8,11.6,70.9,12.8z"/>
	<path id="XMLID_138_" class="st0" d="M85.8,45.2c0-0.1,0-0.2-0.1-0.3c-0.2-1.3-1-2.2-2-3c-0.1-0.4-0.4-0.5-0.8-0.7
		c-2.4-1.5-5.6-1.4-7.4,0.3c-1.8,1.8-3.7,3.5-5.5,5.2c-1.3,1.2-2.5,2.5-3.7,3.8c-1.5,1.6-1.7,1.6-3.5,0.6c-0.4-0.2-0.8-0.4-1.3-0.4
		c-0.8-0.4-1.6-0.3-2.4-0.3c-5.3,0-10.5-0.1-15.8-0.1c-0.8-0.2-1.6-0.5-2.3-0.8c-3.1-1.5-6.3-2.1-9.7-1.8c-6.5,0.6-11.5,3.7-15,9.1
		c-0.4,0.6-0.7,0.7-1.4,0.5c-1.8-0.5-3.6-0.3-5.1,0.9c-0.2,0.2-0.5,0.3-0.7,0.5c-2.8,2.8-5.7,5.7-8.5,8.5c-0.1,0.1-0.2,0.4-0.3,0.5
		c-0.5,0.8-0.5,1.6,0.1,2.3c7,7,13.9,13.9,20.9,20.9c0.8,0.6,1.5,0.5,2.3,0.1c2.1-1.6,3.9-3.7,5.7-5.6c0.7-0.5,1.2-1.1,1.7-1.7
		c1.2-1,2.4-2,2.8-3.6c0.5-1,0.6-2.1,0.3-3.2C34,76.4,34,76,34.4,75.6c1.6-1.2,3.2-2.2,5.3-2.4c7.9,0,15.7,0,23.6,0
		c0.8,0,1.6,0,2.4-0.4c0.7-0.1,1.2-0.4,1.7-0.9c1.6-1.5,2.8-3.3,4.2-5c1.4-1.7,2.8-3.5,4.2-5.3c1.5-1.9,3-3.7,4.5-5.5
		c0.3-0.3,0.7-0.5,0.7-1c1-0.8,1.8-1.9,2.6-2.9c0.8-1.1,2-2,2.1-3.5c0.1-0.1,0.1-0.2,0.1-0.3C86.2,47.3,86.2,46.2,85.8,45.2z
		 M34,51.1C34,51.1,34,51.1,34,51.1C34,51.1,34,51.1,34,51.1C34,51.1,34,51.1,34,51.1z M35,51C35,51,35,51,35,51C35,51,35,51,35,51
		C35,51,35,51,35,51z M5.6,69.9c-0.2-0.2-0.4-0.4-0.6-0.6c-0.2-0.3-0.2-0.5,0-0.8c0.7-0.8,1.2-1.8,2.1-2.4c1.5-1.1,2.8-2.4,4-3.7
		c1.6-1.7,2.8-1.7,4.4-0.1c4,4,8.1,8.1,12.1,12.1c1.4,1.4,2.9,2.7,2.6,5c0,0,0,0,0,0c-0.8,0.1-1,0.7-1.2,1.4
		c-0.5,0.1-0.9,0.5-1.2,0.8c-1.3,1.5-2.9,2.8-4.4,4.2c-1,1-1.1,0.9-2.1-0.1C16.1,80.4,10.8,75.1,5.6,69.9z M47.4,72.5
		c0,0,0-0.1,0-0.1C47.4,72.4,47.4,72.4,47.4,72.5C47.4,72.5,47.4,72.5,47.4,72.5C47.4,72.5,47.4,72.5,47.4,72.5z M81.4,48.6
		c-0.6,0.8-1.2,1.7-1.9,2.5c-3,3.5-5.8,7.1-8.7,10.6c-0.3,0.4-0.6,0.7-0.6,1.2c0,0.1,0,0.1,0,0.2c-0.3,0.2-0.6,0.4-0.6,0.8
		c-0.1,0-0.1,0.1-0.2,0.1c-1.2,0.9-2.1,2-2.9,3.3c0,0.1,0,0.2,0,0.2c-0.2,0.2-0.3,0.3-0.4,0.6c-0.1,0.1-0.2,0.1-0.3,0.2
		c-0.2,0.1-0.3,0.3-0.4,0.5c-0.6,0.5-1.3,0.6-2.1,0.6c-7.5,0-15,0-22.6,0c-0.9,0-1.9,0-2.8,0.3c0,0,0,0,0,0c-0.1,0-0.2-0.1-0.4-0.1
		c-1.9,0-3.2,1.1-4.6,2.1c-0.4,0.3-0.7,0.8-1.2,0.4c-1.3-1.2-2.7-2.3-3.9-3.6c-1.5-1.7-3-3.5-4.9-4.9c-1.1-0.8-2-1.7-2.9-2.7
		c-0.4-0.5-0.9-1.1-0.5-1.9c0.8-1.5,1.8-2.7,3.1-3.8c1.9-1.5,4.1-2.6,6.4-3.5c0,0,0-0.1,0-0.2c0.2-0.1,0.4-0.1,0.7-0.2
		c0.4,0.1,0.8,0,1.2,0c0.4,0,0.7,0,1.1-0.1c0.5-0.2,1.1,0,1.6-0.3c0.1,0,0.2,0,0.3,0c0,0.1,0.1,0.2,0.2,0.2c1.8,0.5,3.7,0.8,5.4,1.7
		c1.9,1,3.9,1.3,6,1.2c4.4-0.1,8.9,0,13.3,0c0.5,0,1,0,1.5,0.1c1,0.2,1.7,0.8,2,1.9c0.3,1,0,2-0.9,2.7c-0.3,0.3-0.7,0.4-1,0.8
		c0,0.1,0,0.1-0.1,0.2c-4.9,0-9.8,0-14.7,0c0-0.1-0.1-0.1-0.1-0.1c-0.9-0.3-1.5-0.1-2,0.7c0,0.1-0.1,0.3-0.1,0.4c0,0,0,0,0,0.1
		c-0.3,0.5-0.3,1,0,1.5c0,0,0,0.1,0,0.1c0,0.1,0,0.3,0.1,0.4c0.4,0.9,1.3,0.8,2,0.8c4.6,0,9.3-0.1,13.9,0.1c3.9,0.2,7.7-3.1,7.3-7.5
		c0-0.5,0-1,0.4-1.4c1.8-1.7,3.3-3.9,5.3-5.4c1.5-1.2,2.8-2.5,4.2-3.9c0.5-0.5,0.9-0.9,1.5-1.3c0.1-0.2,0.2-0.3,0.3-0.4
		c0.4-0.1,0.8-0.1,1.2-0.2c0.1,0,0.2,0.1,0.3,0.2c0.2,0.1,0.4,0.2,0.5,0.3C82.4,45.4,82.7,47,81.4,48.6z"/>
	<path id="XMLID_145_" class="st0" d="M13.9,32.9c0.3,0.3,0.7,0.6,1.2,0.6c0.4,0.3,0.9,0.3,1.4,0.3c4.7,0,9.3,0,14,0
		c0.4,0,0.9,0.1,1.3-0.3c0.7-0.4,1-1,1.3-1.7c0.6-1.6,1.3-3.2,2.4-4.5c0.5-0.1,0.7-0.5,0.8-1c0.7-0.6,1.4-1.1,2.1-1.7
		c1.5-1.1,2.1-1.9,1.3-3.3c-0.2-0.6-0.6-0.9-1.2-1.1c-1.3-1.1-2.8-1.7-4.5-1.9C33.6,18,33.1,18,32.6,18c-3.4,0-6.8,0-10.2,0
		c-0.5,0-1,0-1.4,0.3c-1.8,0.2-3.5,0.8-4.7,2.3c-1,0.3-1.7,0.8-1.9,1.9c-0.5-0.1-0.6,0.4-0.8,0.6c-1.1,1.6-1.6,3.4-1.8,5.3
		c-0.1,1.2,0,2.4,0.8,3.4C13,32.3,13.3,32.7,13.9,32.9z M21.6,18.5c-0.2,0-0.3,0-0.5,0C21.2,18.5,21.4,18.5,21.6,18.5
		C21.5,18.5,21.6,18.5,21.6,18.5z"/>
	<path id="XMLID_148_" class="st0" d="M44.2,16.6c1.6,3.4,4.2,5.2,7.9,5.4c3.6,0.2,6.7-1.8,8.3-4.9c0,0,0-0.1,0-0.1c0,0,0,0.1,0,0.1
		c0.3-0.2,0.3-0.5,0.4-0.8c0.1-0.5,0.4-0.9,0.4-1.4c0.1-0.1,0.1-0.2,0.1-0.3c0.4-1.5,0.3-3-0.3-4.5c0-0.4-0.1-0.8-0.5-1.1
		c0-0.5-0.4-0.9-0.8-1.1c0.1-0.9-0.9-0.9-1.3-1.5c-0.5-0.8-1.3-1.2-2.2-1.5c-0.4-0.3-0.9-0.5-1.5-0.5c-2.6-0.8-4.9-0.3-7.2,1.1
		c-0.2,0.1-0.7,0.2-0.6,0.7c-0.6,0-0.9,0.5-1.2,1c-1.3,1.3-1.9,2.8-2.2,4.5c-0.2,1.3-0.2,2.7,0.3,4C43.9,15.9,43.9,16.3,44.2,16.6z
		 M43.9,14.1c0,0,0-0.1,0-0.1c0,0,0,0,0,0C43.9,14.1,43.9,14.1,43.9,14.1z"/>
	<path id="XMLID_149_" class="st0" d="M12.6,65.6c-0.4,0.1-0.7,0.3-0.7,0.7c-0.7,1.6,0,3.1,1.6,3.2c0.9,0.1,1.4-0.5,1.9-1.1
		c0.4-0.6,0.4-1.2,0-1.9C14.7,65.5,13.9,64.8,12.6,65.6z"/>
</g>
</svg>
